<svg xmlns="http://www.w3.org/2000/svg" xmlns:xlink="http://www.w3.org/1999/xlink" viewBox="0 0 1009.25 750.47"><defs><style>.cls-1{fill:url(#Gradient_bez_nazwy_16);}.cls-2{fill:#6b9364;}.cls-3{fill:url(#Gradient_bez_nazwy_4);}</style><linearGradient id="Gradient_bez_nazwy_16" y1="699.79" x2="1009.25" y2="699.79" gradientUnits="userSpaceOnUse"><stop offset="0" stop-color="#c4775a"/><stop offset="0.28" stop-color="#f8b095"/><stop offset="0.46" stop-color="#ffe9cf"/><stop offset="0.68" stop-color="#c4775a"/><stop offset="1" stop-color="#f8b095"/></linearGradient><linearGradient id="Gradient_bez_nazwy_4" x1="415.36" y1="370.1" x2="591.95" y2="159.66" xlink:href="#Gradient_bez_nazwy_16"/></defs><g id="Warstwa_2" data-name="Warstwa 2"><g id="Warstwa_1-2" data-name="Warstwa 1"><path class="cls-1" d="M24.57,737.58V654.71H15.11v-3.88H56.58v3.88h-10v62.8q0,14.93-8.32,23.94t-22,9q-7.19,0-11.72-3.91A12.52,12.52,0,0,1,0,736.62a10,10,0,0,1,2.6-7A8.31,8.31,0,0,1,9,726.78a8.53,8.53,0,0,1,6.48,2.54,9.44,9.44,0,0,1,2.41,6.79,10.58,10.58,0,0,1-1.17,4.54,10.36,10.36,0,0,0-1.18,3.15,1.8,1.8,0,0,0,.83,1.49,3.59,3.59,0,0,0,2.16.6,5.23,5.23,0,0,0,4.41-2.28A10,10,0,0,0,24.57,737.58Zm229.2-6.42h9.08V654.71h-9.08v-3.88H301q13.2,0,20.86,5.43a17.11,17.11,0,0,1,7.65,14.7,15.13,15.13,0,0,1-6.09,12.48q-6.11,4.8-18.1,6.51V691q13.71,1.14,20.64,6.44t6.92,14.58a19.85,19.85,0,0,1-8.83,17q-8.82,6.28-23.94,6.28H253.77Zm30.16-42.23H292q9.27,0,12.19-3.17t2.92-14q0-11.74-2.57-14.42t-13.31-2.66h-7.3Zm0,42.23h11.3q8.83,0,11.5-3.46t2.67-15.91q0-11.61-3.18-15.43t-12.76-3.81h-9.53Zm116.63,4.19v-4.19h8.7V703l-16.13,11.3v-5.46l16.13-11.3v-42.8h-8.7v-3.88h42.16v3.88H431.1V688.3l19.56-13.65v5.58L431.1,693.76v37.4h12.26q10.47,0,16.45-5.52t9.33-18.48H473l-.76,28.19Zm132.76-42.16a41.54,41.54,0,0,1,3.3-16.32,47,47,0,0,1,9.58-14.35,46.17,46.17,0,0,1,14.28-10.1,43.05,43.05,0,0,1,33.06,0,46.25,46.25,0,0,1,14.27,10.1,46.91,46.91,0,0,1,9.68,14.38,41.29,41.29,0,0,1,3.33,16.29,42,42,0,0,1-3.33,16.51,46.08,46.08,0,0,1-9.68,14.35,43.75,43.75,0,0,1-14.15,10A41.82,41.82,0,0,1,577,737.32a41.28,41.28,0,0,1-16.57-3.27,45.52,45.52,0,0,1-14.21-10,46,46,0,0,1-9.58-14.38A42.39,42.39,0,0,1,533.32,693.19Zm25.27,0q0,16.26.54,22.38a28.54,28.54,0,0,0,1.93,9.11,13.31,13.31,0,0,0,5.77,6.67q3.74,2,10.15,2t10.2-2a13.26,13.26,0,0,0,5.77-6.67,31.57,31.57,0,0,0,2-9.71q.57-6.48.57-21.78T595,671.47a31.64,31.64,0,0,0-2-9.71,13.31,13.31,0,0,0-5.77-6.67q-3.73-2-10.2-2t-10.15,2a13.35,13.35,0,0,0-5.77,6.67,28.6,28.6,0,0,0-1.93,9.11Q558.59,677,558.59,693.19ZM830.2,735.35v-4.19h10.42V654.71H830.2v-3.88h42.68v3.88H862.46v76.45h10.42v4.19Zm103.62,0v-4.19H944.1V654.71h-8.82v-3.88h70.48l.26,22.23h-4.26q-4.32-10.8-8.76-14.57c-3-2.52-7.28-3.78-13-3.78h-14.6v34.73c.34,0,.73.08,1.17.1s1,0,1.81,0q6.93,0,10.48-3.65t4.64-11.84h4.25v36.06h-4.25q-.7-8.76-4.32-12.57t-11.31-3.81h-2.47v37.4H979.6q10.47,0,16.38-5.52t9.27-18.48h4l-.89,28.19Zm-746.64-4.19-31.75-82h-5.08l-29,75.56a15.67,15.67,0,0,1-2.86,5.08,4.7,4.7,0,0,1-3.49,1.4h-5.21v4.19h26.42v-4.19h-7.56a5.31,5.31,0,0,1-2.76-.6,1.87,1.87,0,0,1-1-1.68A16.8,16.8,0,0,1,125,727a3.52,3.52,0,0,1,.29-1.17L144,677.63l20,53.53H153.71v4.19h41v-4.19Zm555.16-80.33v3.88h5.46c2.58,0,4.27.4,5.05,1.2S754,658.41,754,661v38.48L718.4,650.83H684.17v3.88h5.21c6.81,0,10.67,6.54,10.67,6.54l55.31,76.07h3.49V661q0-3.68,1.21-5c.8-.87,2.26-1.3,4.38-1.3h4.95v-3.88ZM701.8,730.27c-.79-.8-1.18-2.5-1.18-5.08v-1.43h-4.83v1.43q0,3.69-1.2,5a3.76,3.76,0,0,1-1.74,1h-8.93v4.19h28.51v-4.19H703.6A3.66,3.66,0,0,1,701.8,730.27Z"/><path class="cls-2" d="M133.79,560.32h-9.23v21.23h-6.63V529.06h14.71q7.71,0,11.68,4t4,11.77a16.38,16.38,0,0,1-2.15,8.49,13.48,13.48,0,0,1-6.07,5.46l10.16,22.32v.43h-7.1Zm-9.23-5.66h8a8.53,8.53,0,0,0,6.61-2.68,10.09,10.09,0,0,0,2.47-7.15q0-10.11-9.15-10.11h-7.94Z"/><path class="cls-2" d="M215.16,557.29H196.59v18.6h21.63v5.66H190V529.06h27.87v5.66H196.59v16.91h18.57Z"/><path class="cls-2" d="M282.46,568.29a8.13,8.13,0,0,0-2.12-6q-2.13-2.09-7.68-4.07a33.12,33.12,0,0,1-8.49-4.16,14.79,14.79,0,0,1-4.4-5,13.54,13.54,0,0,1-1.46-6.4,13.7,13.7,0,0,1,4.16-10.28,15,15,0,0,1,10.91-4,16.24,16.24,0,0,1,8.22,2.06,14,14,0,0,1,5.55,5.73,17,17,0,0,1,2,8.07h-6.64c0-3.24-.78-5.76-2.34-7.53a8.49,8.49,0,0,0-6.74-2.67,8.26,8.26,0,0,0-6.2,2.24,8.55,8.55,0,0,0-2.2,6.28,7.3,7.3,0,0,0,2.38,5.56,20.87,20.87,0,0,0,7.35,4q7.76,2.56,11.09,6.32a14.22,14.22,0,0,1,3.33,9.8A13.29,13.29,0,0,1,285,578.44q-4.15,3.84-11.29,3.84a18.07,18.07,0,0,1-8.45-2,15,15,0,0,1-6.1-5.62,15.69,15.69,0,0,1-2.21-8.31h6.63c0,3.24.91,5.77,2.72,7.57a10.08,10.08,0,0,0,7.41,2.7q4.37,0,6.56-2.23A8.29,8.29,0,0,0,282.46,568.29Z"/><path class="cls-2" d="M361.34,534.72H347.53v46.83h-6.6V534.72H327.16v-5.66h34.18Z"/><path class="cls-2" d="M423.6,567.82H405.86l-4.08,13.73H395l16.91-52.49h5.66l16.94,52.49h-6.78Zm-16-5.66H421.9l-7.17-23.87Z"/><path class="cls-2" d="M505.22,529.06v37.31q-.08,7.47-4.33,11.69T489,582.28q-7.8,0-11.9-4.13T473,566.37V529.06h6.56v37c0,3.54.75,6.17,2.25,7.91s3.93,2.61,7.27,2.61,5.8-.87,7.3-2.61,2.25-4.37,2.25-7.91v-37Z"/><path class="cls-2" d="M564.12,560.32h-9.23v21.23h-6.64V529.06H563q7.71,0,11.68,4t4,11.77a16.38,16.38,0,0,1-2.14,8.49,13.5,13.5,0,0,1-6.08,5.46l10.17,22.32v.43h-7.1Zm-9.23-5.66h8a8.56,8.56,0,0,0,6.62-2.68,10.09,10.09,0,0,0,2.47-7.15q0-10.11-9.16-10.11h-7.93Z"/><path class="cls-2" d="M644.8,567.82H627.06L623,581.55h-6.78l16.91-52.49h5.66l16.94,52.49H649Zm-16-5.66h14.32l-7.18-23.87Z"/><path class="cls-2" d="M728.26,564.86c-.29,5.63-1.87,9.93-4.74,12.93s-6.93,4.49-12.17,4.49a15.05,15.05,0,0,1-12.55-6q-4.65-6-4.65-16.28v-9.52q0-10.23,4.78-16.18t13-5.95q7.6,0,11.77,4.54t4.53,13h-6.67c-.29-4.28-1.19-7.34-2.71-9.16S715.06,534,712,534a9.43,9.43,0,0,0-8.26,4.2q-2.88,4.2-2.88,12.31v9.63q0,8,2.68,12.22a8.71,8.71,0,0,0,7.85,4.25c3.43,0,5.91-.85,7.42-2.56s2.46-4.77,2.82-9.19Z"/><path class="cls-2" d="M788.17,529.06h6.63v37.17q0,7.53-3.84,11.79a13.21,13.21,0,0,1-10.33,4.26q-6.66,0-10.38-4t-3.71-11.18h6.59a11.13,11.13,0,0,0,2,7,6.62,6.62,0,0,0,5.51,2.52,6.49,6.49,0,0,0,5.48-2.74q2.05-2.73,2.06-7.68Z"/><path class="cls-2" d="M862.32,567.82H844.58l-4.07,13.73h-6.78l16.91-52.49h5.66l17,52.49h-6.78Zm-16-5.66h14.31l-7.18-23.87Z"/><path class="cls-2" d="M555,83.19c10.61-4.79,21.46-3.16,32.26-1.13,9.88,1.86,19.38,5.15,28.84,8.5,1.62.57,3.39.94,1.57,3.3-10.39,13.52-20.63,27.38-35.82,35.83-44.28,25.46-72.7-24.93-26.85-46.5"/><path class="cls-2" d="M441,131.93c-11-3.84-17.72-12.51-24.14-21.42-5.88-8.16-10.48-17.09-15-26.05-.77-1.52-1.8-3,1.15-3.47,16.84-2.62,33.82-5.6,50.64-1.25,49.63,12.11,35.46,68.19-12.62,52.19"/><path class="cls-2" d="M490,42.79c3.2-11.19,11.47-18.42,20-25.34C517.78,11.11,526.43,6,535.11,1c1.48-.86,2.91-2,3.54.94,3.58,16.66,7.54,33.44,4.16,50.49-9.23,50.24-66,39.33-52.83-9.59"/><path class="cls-3" d="M634.82,242.93c-.54-22-6.3-42.65-19.38-60.72-19.09-26.37-50.64-34.33-80-20.3-5.21,2.49-10.2,5.42-15.31,8.13l-2.06,1.06c-8.68-20.39-5.83-49.18,7.27-67.3C503.19,112.31,482,133,492.06,171.61a46.9,46.9,0,0,1-4.43-2.42c-9.31-5.25-18.67-10.29-29.27-12.62-20.45-4.47-37.73,1.83-52.19,16-23.25,22.82-34,50.75-31.41,83.31A216.91,216.91,0,0,0,409.92,359c8.22,12.59,18.16,23.62,31.28,31.46,5.6,3.34,11.77,5,18,6.68h10c10.18-1.73,29.36-15.05,29.36-53.78,0-6.09-.84-11.69-5.92-15.12-8.11-5.46-13.63-12.44-15.81-22v-9.64c1.09-4.08.79-8.3,1.08-12.44,1.07-15.72,1.91-31.45,2.84-47.18.05-.74.07-1.5.16-2.24.48-3.59,2.31-5.41,5.26-5.24s4.72,2.47,4.55,6.19c-.39,8.57-.83,17.13-1.25,25.7s-.87,17.34-1.27,26c-.19,4.27,1.81,6.95,5.2,7.1s5.68-2.44,5.8-6.69c.46-16.93.85-33.86,1.28-50.79a17.87,17.87,0,0,1,.18-3.2c.59-2.75,2.33-4.35,5.19-4.3a4.82,4.82,0,0,1,5,4.43,19.72,19.72,0,0,1,.2,2.88q.62,24.44,1.21,48.86a23.08,23.08,0,0,0,.5,4.78,4.94,4.94,0,0,0,5.17,4,5,5,0,0,0,5.16-4,10.52,10.52,0,0,0,.31-2.85q-1.22-25.37-2.48-50.74a19.79,19.79,0,0,1,0-2.88c.24-2.58,1.64-4.18,4.25-4.42s4.7,1,5.13,3.73c.52,3.27.65,6.6.85,9.91q1.73,27.91,3.41,55.83,1.08,17.76-13.69,27.6c-6.25,4.17-8,9.94-7.83,17.4.56,30.17,7.93,43.34,10.22,45.4,4.78,4.31,10.65,6.28,16.76,7.72h10c3.48-1,7.05-1.85,10.44-3.14,11.32-4.32,20.21-12,28.06-21,14.87-17,25-36.71,32.67-57.73C629.8,291.94,635.44,268,634.82,242.93Z"/></g></g></svg>